<?xml version="1.0" encoding="utf-8"?>
<!-- Generator: Adobe Illustrator 21.0.0, SVG Export Plug-In . SVG Version: 6.00 Build 0)  -->
<svg version="1.1" id="Layer_1" xmlns="http://www.w3.org/2000/svg" xmlns:xlink="http://www.w3.org/1999/xlink" x="0px" y="0px"
	 viewBox="0 0 512 512" style="enable-background:new 0 0 512 512;" xml:space="preserve">
<g>
	<path d="M388.6,0H123.4c-20.2,0-36.6,16.4-36.6,36.6v438.9c0,20.2,16.4,36.6,36.6,36.6h265.1c20.2,0,36.6-16.4,36.6-36.6V36.6
		C425.1,16.4,408.7,0,388.6,0z M384,470.9H128V41.1h256V470.9z M233.1,412.6c0,12.6,10.2,22.9,22.9,22.9c12.6,0,22.9-10.2,22.9-22.9
		c0-12.6-10.2-22.9-22.9-22.9C243.4,389.7,233.1,399.9,233.1,412.6z"/>
</g>
</svg>
