<svg xmlns="http://www.w3.org/2000/svg" xmlns:xlink="http://www.w3.org/1999/xlink" version="1.1" x="0px" y="0px" viewBox="0 0 100 125" style="enable-background:new 0 0 100 100;" xml:space="preserve"><path d="M45.8,46.2h-13c-1.1,0-2,0.9-2,2v3.5c0,1.1,0.9,2,2,2h13v13c0,1.1,0.9,2,2,2h3.5c1.1,0,2-0.9,2-2v-13h13c1.1,0,2-0.9,2-2  v-3.5c0-1.1-0.9-2-2-2h-13v-13c0-1.1-0.9-2-2-2h-3.5c-1.1,0-2,0.9-2,2L45.8,46.2z"/><path d="M22.9,71c-1.5,1.5-1.5,3.8,0,5.3c5,5.1,11.4,8.7,18.3,10.3c2,0.5,4.1-0.7,4.6-2.7c0.5-2-0.7-4.1-2.7-4.6  c-0.1,0-0.2,0-0.2-0.1c-5.6-1.3-10.7-4.1-14.7-8.2C26.7,69.6,24.3,69.6,22.9,71z"/><path d="M56.2,79.2c-2,0.4-3.3,2.4-2.9,4.4c0.4,2,2.4,3.3,4.4,2.9c0.1,0,0.1,0,0.2,0C78.1,82,90.7,61.8,86.1,41.7  C82.2,24.6,67,12.5,49.5,12.5c-2.1,0-3.8,1.7-3.8,3.8s1.7,3.8,3.8,3.8c16.6,0,30,13.4,30,30C79.6,64,69.9,76.1,56.2,79.2z"/><path d="M12,50c0,4.6,0.8,9.2,2.5,13.5c0.7,1.9,2.9,2.9,4.9,2.1c1.9-0.7,2.9-2.9,2.1-4.9c-1.3-3.5-2-7.1-2-10.8  c0-2.1-1.7-3.8-3.8-3.8S12,47.9,12,50z"/><path d="M22.2,29.8c-1.8-1-4.1-0.4-5.1,1.4c0,0,0,0,0,0c-0.4,0.7-0.8,1.4-1.1,2.1c-0.9,1.8-0.2,4.1,1.6,5s4.1,0.2,5-1.6  c0,0,0,0,0-0.1c0.3-0.6,0.6-1.1,0.9-1.7C24.6,33.2,24,30.9,22.2,29.8C22.2,29.8,22.2,29.8,22.2,29.8z"/><text x="0" y="115" fill="#000000" font-size="5px" font-weight="bold" font-family="'Helvetica Neue', Helvetica, Arial-Unicode, Arial, Sans-serif">Created by Pawel Rak</text><text x="0" y="120" fill="#000000" font-size="5px" font-weight="bold" font-family="'Helvetica Neue', Helvetica, Arial-Unicode, Arial, Sans-serif">from the Noun Project</text></svg>